<svg width="52" height="52" viewBox="0 0 52 52" fill="none" xmlns="http://www.w3.org/2000/svg">
<circle cx="26" cy="26" r="26" fill="#5D6B98"/>
<path fill-rule="evenodd" clip-rule="evenodd" d="M19.3333 22.6665C18.873 22.6665 18.4999 23.0396 18.4999 23.4998V31.8332C18.4999 32.2934 18.873 32.6665 19.3333 32.6665H32.6666C33.1268 32.6665 33.4999 32.2934 33.4999 31.8332V23.4998C33.4999 23.0396 33.1268 22.6665 32.6666 22.6665H19.3333ZM16.8333 23.4998C16.8333 22.1191 17.9525 20.9998 19.3333 20.9998H32.6666C34.0473 20.9998 35.1666 22.1191 35.1666 23.4998V31.8332C35.1666 33.2139 34.0473 34.3332 32.6666 34.3332H19.3333C17.9525 34.3332 16.8333 33.2139 16.8333 31.8332V23.4998Z" fill="white"/>
<path fill-rule="evenodd" clip-rule="evenodd" d="M22.5655 18.3987C23.0343 17.9299 23.6702 17.6665 24.3333 17.6665H27.6666C28.3296 17.6665 28.9655 17.9299 29.4344 18.3987C29.9032 18.8676 30.1666 19.5035 30.1666 20.1665V33.4998C30.1666 33.9601 29.7935 34.3332 29.3333 34.3332C28.873 34.3332 28.4999 33.9601 28.4999 33.4998V20.1665C28.4999 19.9455 28.4121 19.7335 28.2558 19.5772C28.0996 19.421 27.8876 19.3332 27.6666 19.3332H24.3333C24.1122 19.3332 23.9003 19.421 23.744 19.5772C23.5877 19.7335 23.4999 19.9455 23.4999 20.1665V33.4998C23.4999 33.9601 23.1268 34.3332 22.6666 34.3332C22.2063 34.3332 21.8333 33.9601 21.8333 33.4998V20.1665C21.8333 19.5035 22.0966 18.8676 22.5655 18.3987Z" fill="white"/>
</svg>
